<svg class="svg-icon" style="width: 1em; height: 1em;vertical-align: middle;fill: currentColor;overflow: hidden;" viewBox="0 0 1024 1024" version="1.1" xmlns="http://www.w3.org/2000/svg"><path d="M319.68 607.92a80 80 0 1 0 0 160 80 80 0 0 0 0-160zM240 417.168v80C384 497.152 510.464 624 510.464 768h80C590.464 576 432 417.168 240 417.168z m0-177.248v80C480 319.92 687.696 528 687.696 768h80C767.696 480 528 239.92 240 239.92zM776 96h-544A136 136 0 0 0 96 232v544a136 136 0 0 0 136 136h544a136 136 0 0 0 136-136v-544A136 136 0 0 0 776 96zM832 776a56 56 0 0 1-56 56h-544a56 56 0 0 1-56-56v-544a56 56 0 0 1 56-56h544a56 56 0 0 1 56 56v544z" fill="#565D64" /></svg>